<?xml version="1.0" encoding="UTF-8" standalone="no"?>
<!-- Created with Inkscape (http://www.inkscape.org/) -->

<svg
   xmlns:svg="http://www.w3.org/2000/svg"
   xmlns="http://www.w3.org/2000/svg"
   version="1.2"
   width="827"
   height="440"
   viewBox="0 0 827 440"
   id="Layer_1"
   xml:space="preserve"
   style="overflow:inherit"><defs
   id="defs7" />
<path
   d="m 81,0 c 0,0.333 0,0.667 0,1 42.878,0.646 78.833,13.683 107,28 20.248,3.615 37.15,15.554 55,24 19.61,9.279 40.311,17.019 58,28 4.686,2.909 9.363,7.75 14,11 21.073,14.771 42.464,30.969 60,50 -0.72,-13.887 -8.028,-22.199 -15,-35 C 356.144,99.92 352.768,91.503 349,87 336.082,71.561 311.408,62.021 293,50 273.13,37.024 258.538,21.883 243,7 c 15.686,12.098 30.537,27.498 49,40 17.98,12.175 38.492,21.456 55,35 -5.306,-15.03 -12.124,-37.208 -18,-55 11.389,17.611 14.636,43.364 26,61 16.52,11.147 29.893,25.44 45,38 3.917,-1.416 3.187,-7.48 6,-10 4.406,5.965 10.439,8.23 14,0 4.175,1.158 3.021,7.646 6,10 16.678,-10.989 27.791,-27.543 46,-37 10.74,-18.593 14.761,-43.906 26,-62 -6.4,17.266 -10.481,36.852 -18,53 35.224,-19.776 75.383,-43.284 103,-74 -18.861,24.282 -46.223,43.587 -76,61 -9.613,5.621 -21.45,11.1 -28,18 -4.768,5.023 -6.744,14.047 -11,22 -6.606,12.345 -14.474,18.505 -17,35 22.728,-22.605 48.957,-41.709 75,-61 36.783,-19.167 73.159,-37.647 112,-52 5.639,-2.084 10.366,-6.955 16,-9 8.007,-2.907 17.643,-4.975 27,-8 20.518,-6.634 39.103,-9.82 65,-12 0.667,0 1.333,0 2,0 37.557,4.444 70.983,13.016 79,47 0,3.667 0,7.333 0,11 -10.663,54.67 -33.057,97.611 -57,139 -13.441,14.146 -35.327,22.518 -58,22 12.049,15.444 28.117,30.377 29,56 0.365,10.608 -3.606,20.607 -2,32 -12.614,38.719 -28.692,73.974 -58,96 -1.8,2.867 -2.635,6.698 -5,9 -5.3,1.158 -3.105,1.631 -8,0 -3.725,5.275 -11.416,6.584 -16,11 -22.624,4.288 -41.317,13.203 -65,15 -6.043,0.459 -15.1,-1.806 -21,2 -11.387,-3.92 -22.845,0.262 -35,-2 -43.304,-39.363 -49.436,-115.897 -68,-180 -3.177,23.301 7.354,45.811 1,66 4.924,13.8 4.015,27.758 6,42 2.154,15.458 11.743,28.675 12,44 2.295,4.722 7.757,11.555 7,16 -17.272,-26.728 -26.108,-61.892 -30,-102 -4.448,-0.081 -4.65,9.304 -8,7 6.229,-10.02 3.608,-22.922 4,-39 -2.925,-0.83 -3.245,5.961 -5,3 7.348,-13.766 9.536,-67.481 -4,-76 -17.658,54.105 6.935,152.299 -27,196 -2.971,-4.775 -8.459,-2.615 -12,0 -31.984,-45.328 -8.785,-141.744 -26,-196 -13.82,12.325 -11.37,59.118 -4,77 -2.88,-0.12 -1.735,-4.265 -5,-4 0.077,16.684 -1.724,29.072 4,40 -4.379,-0.955 -3.25,-7.416 -8,-8 -1.948,36.053 -12.861,63.139 -22,92 -5.522,0.811 -3.075,9.592 -9,10 14.284,-28.383 19.857,-65.477 26,-102 -6.98,-19.87 5.569,-44.499 0,-66 -5.058,28.415 -12.481,56.384 -20,83 -6.304,22.316 -9.849,42.438 -19,60 -2.4,4.605 -4.885,10.953 -7,14 -0.988,1.424 -4.915,2.33 -7,5 -1.552,1.986 -1.424,6.149 -3,8 -0.951,1.116 -5.319,2.174 -7,4 -3.261,3.543 -2.642,5.033 -5,6 -5.991,2.455 -16.335,-0.396 -25,0 -3.314,0.151 -7.529,2.025 -10,2 -31.826,-0.334 -58.383,-11.738 -86,-17 1.406,-4.406 -3.291,-2.709 -6,-3 -1.634,-4.033 -6.837,-4.496 -9,-8 -4.95,2.122 -2.976,0.445 -9,0 -0.625,-3.709 -2.811,-5.855 -4,-9 -29.349,-22.317 -45.901,-57.433 -58,-97 1.485,-11.188 -2.503,-21.671 -2,-32 1.229,-25.219 17.269,-39.723 29,-55 C 58.286,221.146 43.038,176.544 24,131 13.852,106.722 2.178,82.157 0,58 0,54.333 0,50.667 0,47 8.017,13.016 41.443,4.444 79,0 c 0.667,0 1.333,0 2,0 z m 305,142 c 1.017,3.024 -1.567,11.972 6,11 0.916,-8.084 2.577,-15.423 5,-22 -10.584,-13.418 -23.885,-29.446 -39,-35 8.478,15.055 22.288,29.015 28,46 z m 44,-10 c 3.858,5.142 2.562,15.438 6,21 6.049,0.382 4.194,-7.139 5,-12 7.388,-16.612 19.006,-28.995 27,-45 1.052,-0.055 0.787,-1.282 -1,-1 -13.823,10.843 -27.852,21.482 -37,37 z"
   id="path3"
   style="fill-rule:evenodd" />
</svg>